<svg width="380" height="56" viewBox="0 0 380 56" fill="none" xmlns="http://www.w3.org/2000/svg"><rect width="380" height="56" rx="8" fill="#fff"/><circle cx="34" cy="28" r="24" fill="#F0F2F5"/><path d="M28 25.5a5.5 5.5 0 0 1 10.907-1.013 1 1 0 0 0 .668.766A5 5 0 0 1 38 35a1 1 0 1 0 0 2 7 7 0 0 0 2.746-13.44 7.5 7.5 0 0 0-14.74 2.24A6 6 0 0 0 29 37a1 1 0 1 0 0-2 4 4 0 0 1-1.551-7.688 1 1 0 0 0 .602-1.058A6 6 0 0 1 28 25.5" fill="#667185"/><path d="M33.336 30.253a1 1 0 0 1 1.328 0l1.5 1.333A1 1 0 0 1 35 33.2V38a1 1 0 1 1-2 0v-4.8a1 1 0 0 1-1.164-1.614z" fill="#667185"/><path d="M82.55 19.138q-.63 1.12-1.428 1.596-.797.462-1.946.462-.924 0-1.694-.322a3.7 3.7 0 0 1-1.33-.938 4.6 4.6 0 0 1-.854-1.526q-.294-.896-.294-2.044 0-1.26.336-2.17.35-.924.91-1.526.574-.616 1.316-.91a4.3 4.3 0 0 1 1.554-.294q1.302 0 2.1.574.798.56 1.274 1.61l-1.526.84a2.54 2.54 0 0 0-.658-.994q-.42-.378-1.148-.378-.435 0-.84.196-.406.195-.714.602-.308.405-.504 1.022-.182.602-.182 1.428 0 .728.168 1.316.182.588.49.994.322.405.742.63.434.224.924.224.63 0 1.064-.28.448-.294.77-1.008zM83.802 21v-9.254l1.834-.28V14.7q.336-.252.798-.434t1.134-.182 1.148.21q.49.195.784.574.307.378.448.924.154.532.154 1.204V21h-1.834v-3.878a5 5 0 0 0-.042-.658 1.2 1.2 0 0 0-.168-.49.75.75 0 0 0-.336-.322q-.225-.112-.588-.112-.407 0-.812.196-.392.196-.686.462V21zm11.062.154q-.855 0-1.498-.308a3.3 3.3 0 0 1-1.064-.812 3.5 3.5 0 0 1-.63-1.134q-.21-.644-.21-1.302t.21-1.288.63-1.12q.434-.504 1.064-.798.643-.308 1.498-.308.854 0 1.484.308.644.294 1.064.798.434.49.644 1.12t.21 1.288-.21 1.302q-.21.63-.644 1.134-.42.504-1.064.812-.63.308-1.484.308m-1.61-3.556q0 .434.098.812.111.364.308.644.21.28.504.448.307.154.7.154t.686-.154q.308-.168.504-.448.21-.28.308-.644.111-.378.112-.812 0-.42-.112-.798a1.7 1.7 0 0 0-.308-.644 1.33 1.33 0 0 0-.504-.434 1.36 1.36 0 0 0-.686-.168q-.393 0-.7.168a1.5 1.5 0 0 0-.504.434q-.197.266-.308.644a3.2 3.2 0 0 0-.098.798m9.389 3.556q-.854 0-1.498-.308a3.3 3.3 0 0 1-1.064-.812 3.5 3.5 0 0 1-.63-1.134q-.21-.644-.21-1.302t.21-1.288.63-1.12a3.1 3.1 0 0 1 1.064-.798q.644-.308 1.498-.308t1.484.308q.644.294 1.064.798.434.49.644 1.12t.21 1.288-.21 1.302q-.21.63-.644 1.134-.42.504-1.064.812-.63.308-1.484.308m-1.61-3.556q0 .434.098.812.112.364.308.644.21.28.504.448.308.154.7.154t.686-.154q.307-.168.504-.448.21-.28.308-.644.112-.378.112-.812 0-.42-.112-.798a1.7 1.7 0 0 0-.308-.644 1.34 1.34 0 0 0-.504-.434 1.36 1.36 0 0 0-.686-.168q-.392 0-.7.168a1.5 1.5 0 0 0-.504.434 2.1 2.1 0 0 0-.308.644 3.2 3.2 0 0 0-.098.798m7.261 1.134q.239.448.672.756.435.294 1.148.294 1.106 0 1.106-.658a.54.54 0 0 0-.07-.266.57.57 0 0 0-.238-.238 2.2 2.2 0 0 0-.49-.21 8 8 0 0 0-.784-.196 8 8 0 0 1-.98-.266 3 3 0 0 1-.742-.406 1.8 1.8 0 0 1-.476-.588 1.9 1.9 0 0 1-.168-.84q0-.449.196-.812.197-.378.546-.644.364-.28.882-.42a4 4 0 0 1 1.148-.154q1.149 0 1.82.378.672.364 1.036.896l-1.288.882a2.1 2.1 0 0 0-.644-.56 1.83 1.83 0 0 0-.924-.224q-.573 0-.812.182a.53.53 0 0 0-.224.448.48.48 0 0 0 .28.462q.28.14 1.036.294.617.126 1.092.308.49.168.826.42a1.6 1.6 0 0 1 .504.616q.183.35.182.854 0 .546-.224.952-.223.391-.616.658a3 3 0 0 1-.924.378 5 5 0 0 1-1.134.126q-1.204 0-1.96-.448a3.26 3.26 0 0 1-1.134-1.148zm7.355-.672q.042.42.182.728t.35.504.462.294q.267.084.546.084.49 0 .882-.168.393-.182.812-.77l1.358.826q-.588.882-1.344 1.246-.741.35-1.764.35-.671 0-1.274-.21a3 3 0 0 1-1.064-.644 3.3 3.3 0 0 1-.714-1.106q-.266-.658-.266-1.568 0-.854.252-1.512.267-.658.714-1.106a3.1 3.1 0 0 1 1.036-.686 3.4 3.4 0 0 1 1.274-.238q1.415 0 2.268.994.869.98.896 2.982zm2.744-1.246a1.6 1.6 0 0 0-.154-.588 1.24 1.24 0 0 0-1.148-.756q-.476 0-.896.364-.42.35-.504.98zM128.131 21l-.084-.504a2.1 2.1 0 0 1-.756.49 2.8 2.8 0 0 1-.994.168q-.447 0-.882-.154a2.3 2.3 0 0 1-.742-.406 2.2 2.2 0 0 1-.518-.672 2.1 2.1 0 0 1-.196-.91q0-.742.392-1.19a2.7 2.7 0 0 1 1.008-.714 5.3 5.3 0 0 1 1.302-.35 19 19 0 0 1 1.302-.14v-.224q0-.42-.252-.658-.237-.252-.728-.252-.391 0-.714.168a1.7 1.7 0 0 0-.546.434l-1.246-.868q.267-.335.602-.56a3.5 3.5 0 0 1 .7-.35q.364-.126.714-.168a4 4 0 0 1 .644-.056q.588 0 1.078.154.49.14.84.462.365.308.56.798.196.476.196 1.162V21zm-.154-3.15q-.391.028-.798.07a3.2 3.2 0 0 0-.714.154 1.3 1.3 0 0 0-.532.336q-.195.21-.196.56 0 .336.252.546.252.195.742.196.351 0 .672-.14a2 2 0 0 0 .574-.35zm6.579 3.15v-9.338h6.356v1.694h-4.466v2.212h3.556v1.666h-3.556V21zm8.247-7.518q-.546 0-.826-.308a1.03 1.03 0 0 1-.266-.686q0-.364.266-.672.28-.308.826-.308t.812.308q.28.308.28.672 0 .377-.28.686-.266.308-.812.308m-.91 7.518v-6.566l1.82-.28V21zm3.637 0v-9.254l1.834-.28V21zm5.065-2.94q.042.42.182.728t.35.504.462.294a1.8 1.8 0 0 0 .546.084q.489 0 .882-.168.392-.182.812-.77l1.358.826q-.588.882-1.344 1.246-.742.35-1.764.35-.672 0-1.274-.21a3 3 0 0 1-1.064-.644 3.3 3.3 0 0 1-.714-1.106q-.266-.658-.266-1.568 0-.854.252-1.512.266-.658.714-1.106a3.1 3.1 0 0 1 1.036-.686 3.4 3.4 0 0 1 1.274-.238q1.413 0 2.268.994.867.98.896 2.982zm2.744-1.246a1.6 1.6 0 0 0-.154-.588 1.24 1.24 0 0 0-.7-.672 1.3 1.3 0 0 0-.448-.084q-.477 0-.896.364-.42.35-.504.98z" fill="#202224"/><path d="M75.519 45v-9.338h2.912q1.61 0 2.38.714.784.713.784 2.114 0 1.357-.826 2.058-.813.7-2.38.7h-1.75V45zm1.12-4.732h1.834q.854 0 1.386-.42t.532-1.386-.504-1.4-1.428-.434h-1.82zm13.425-.07q0 .98-.224 1.764-.225.77-.63 1.344-.392.574-.938.952a3.94 3.94 0 0 1-1.946.7 8 8 0 0 1-.784.042h-2.408v-9.338h2.408q.546 0 1.134.098.588.084 1.092.322t.924.616q.42.364.714.882.308.517.476 1.176.182.644.182 1.442m-1.19.056q0-1.218-.378-1.96a2.85 2.85 0 0 0-1.008-1.162 2.7 2.7 0 0 0-.966-.378 4.7 4.7 0 0 0-1.064-.126h-1.204v7.406h1.148q.308 0 .7-.028t.714-.168q.42-.168.798-.462t.658-.728.434-1.022q.168-.589.168-1.372M91.884 45v-9.338h5.292v.966h-4.172v3.15h3.08v.966H92.99V45zm9.382 0v-5.796h-.98v-.882h.994v-.49q0-.644.14-1.092.154-.448.42-.728t.63-.406a2.5 2.5 0 0 1 .812-.126q.532 0 .896.112.378.098.658.252l-.322.826a3.5 3.5 0 0 0-.532-.196 2 2 0 0 0-.644-.098q-.239 0-.42.056a.6.6 0 0 0-.308.224 1.1 1.1 0 0 0-.196.448 3.2 3.2 0 0 0-.07.742v.476h1.68l-.154.882h-1.512V45zm9.428-3.346a4.3 4.3 0 0 1-.196 1.288q-.197.63-.588 1.12a2.9 2.9 0 0 1-.966.798q-.588.294-1.358.294t-1.358-.294a3.1 3.1 0 0 1-.966-.798 3.6 3.6 0 0 1-.588-1.134 4.5 4.5 0 0 1-.014-2.576q.197-.63.588-1.12t.966-.784q.588-.294 1.372-.294.77 0 1.358.308.588.294.966.784.392.49.588 1.12t.196 1.288m-1.05-.014a3.8 3.8 0 0 0-.126-.966 2.5 2.5 0 0 0-.392-.84 1.9 1.9 0 0 0-.644-.602 1.73 1.73 0 0 0-.896-.224q-.518 0-.91.224-.378.224-.63.602a2.7 2.7 0 0 0-.378.84 3.6 3.6 0 0 0-.126.952q0 .504.126.98t.378.854q.266.364.644.602.392.224.896.224.518 0 .896-.224.392-.239.644-.602.266-.378.392-.854a3.8 3.8 0 0 0 .126-.966m2.662 3.36v-6.594l.966-.168.098.672q.266-.28.686-.518t.854-.238q.308 0 .56.042.266.042.406.084l-.196.994a2.3 2.3 0 0 0-.882-.154q-.406 0-.784.224-.365.224-.63.462V45zm13.122 0v-4.172q0-.84-.322-1.302-.323-.476-1.176-.476-.28 0-.56.084a3 3 0 0 0-.532.182 5 5 0 0 0-.448.238 4 4 0 0 0-.336.238q.07.239.098.504.042.252.042.672V45h-1.078v-4.172q0-.364-.07-.686a1.4 1.4 0 0 0-.224-.56 1.07 1.07 0 0 0-.42-.392q-.266-.14-.686-.14-.49 0-.98.252a7 7 0 0 0-.84.49V45h-1.078v-6.594l.98-.168.084.616q.336-.239.868-.462a2.8 2.8 0 0 1 1.162-.238q.531 0 1.022.182.504.181.84.672.42-.35 1.022-.602t1.316-.252q.7 0 1.162.196.475.182.742.546.28.35.392.882.112.518.112 1.19V45zm6.693 0-.056-.574a2.5 2.5 0 0 1-.812.546q-.447.182-.994.182-.434 0-.854-.14a2.3 2.3 0 0 1-.728-.378 2.1 2.1 0 0 1-.504-.658 2 2 0 0 1-.196-.91q0-.714.378-1.176.393-.476.98-.742a5 5 0 0 1 1.302-.378 9 9 0 0 1 1.386-.112v-.084q0-.84-.364-1.204-.35-.364-1.022-.364-.462 0-.854.21-.378.195-.644.532l-.756-.532q.406-.546.952-.798.56-.266 1.4-.266 1.12 0 1.736.574.63.574.63 1.918V45zm-.098-3.486q-.462.015-.98.07a4 4 0 0 0-.966.224 1.84 1.84 0 0 0-.728.462q-.28.308-.28.812 0 .323.126.546t.308.378q.196.14.42.21.238.056.462.056.49 0 .896-.196.42-.21.742-.49zm4.476-2.31v4.27q0 .49.182.658a.77.77 0 0 0 .49.154q.267 0 .504-.112a2.2 2.2 0 0 0 .434-.266l.42.728a3.3 3.3 0 0 1-.644.378q-.308.14-.882.14-.756 0-1.162-.378-.406-.392-.406-1.19v-4.382h-1.148v-.882h1.148V36.6l1.078-.196v1.918h1.82l-.154.882z" fill="#4B5563"/><circle cx="147" cy="40" r="2" fill="#98A2B3"/><path d="M156.166 45v-9.338h1.316l2.716 7.21 2.8-7.21h1.302V45h-1.078v-7.126l-2.898 7.28h-.224l-2.842-7.266V45zm13.947 0-.056-.574a2.6 2.6 0 0 1-.812.546 2.6 2.6 0 0 1-.994.182q-.434 0-.854-.14a2.2 2.2 0 0 1-.728-.378 2 2 0 0 1-.7-1.568q0-.714.378-1.176.392-.476.98-.742a5 5 0 0 1 1.302-.378 9 9 0 0 1 1.386-.112v-.084q0-.84-.364-1.204-.35-.364-1.022-.364-.462 0-.854.21-.378.195-.644.532l-.756-.532q.406-.546.952-.798.56-.266 1.4-.266 1.12 0 1.736.574.63.574.63 1.918V45zm-.098-3.486q-.462.015-.98.07a4 4 0 0 0-.966.224q-.434.154-.728.462-.28.308-.28.812 0 .323.126.546.125.224.308.378.195.14.42.21.237.056.462.056.49 0 .896-.196.42-.21.742-.49zM172.013 45l2.24-3.402-2.142-3.276h1.218l1.512 2.394 1.526-2.394h1.148l-2.128 3.248 2.212 3.43h-1.162l-1.638-2.492L173.175 45zm7.032.154a.72.72 0 0 1-.546-.238.9.9 0 0 1-.21-.602q0-.35.21-.588a.7.7 0 0 1 .546-.252q.322 0 .532.252.225.239.224.588a.87.87 0 0 1-.224.602.68.68 0 0 1-.532.238m5.606-2.212q.365.644.896.924.546.28 1.106.28.378 0 .728-.098.364-.112.63-.322a1.4 1.4 0 0 0 .434-.532q.168-.322.168-.77 0-.434-.168-.756a1.5 1.5 0 0 0-.448-.546 1.8 1.8 0 0 0-.644-.336 3.4 3.4 0 0 0-.756-.14v-.84q.35-.028.686-.14t.602-.308a1.5 1.5 0 0 0 .42-.504q.168-.294.168-.686 0-.728-.448-1.106-.434-.392-1.232-.392-.63 0-1.12.322-.475.323-.742.854l-.882-.546a2.8 2.8 0 0 1 1.176-1.218 3.4 3.4 0 0 1 1.652-.42q.588 0 1.092.168.519.168.882.49.364.307.574.756t.21 1.008q0 .812-.392 1.316a2.76 2.76 0 0 1-.966.784q.309.126.574.308.28.181.49.448.21.252.322.616.126.364.126.854 0 .672-.266 1.19-.265.503-.7.854-.433.336-.994.518a3.75 3.75 0 0 1-2.002.084 3.3 3.3 0 0 1-.812-.308 3.4 3.4 0 0 1-.7-.518 3.2 3.2 0 0 1-.546-.742zM191.932 45v-9.338h1.316l2.716 7.21 2.8-7.21h1.302V45h-1.078v-7.126l-2.898 7.28h-.224l-2.842-7.266V45zm10.404 0v-9.338h2.786q1.442 0 2.198.644.756.645.756 1.736 0 .896-.532 1.386-.532.476-1.372.616.42.042.84.182.42.127.756.406.35.28.56.714.224.42.224 1.05 0 .602-.224 1.092a2.3 2.3 0 0 1-.588.812 2.7 2.7 0 0 1-.896.518 3.4 3.4 0 0 1-1.134.182zm1.12-5.376h1.568q.882 0 1.372-.406.504-.42.504-1.176 0-.686-.448-1.05-.434-.364-1.288-.364h-1.708zm0 4.41h2.156q.798 0 1.274-.392.476-.406.476-1.246 0-.895-.588-1.344-.574-.462-1.708-.462h-1.61z" fill="#4B5563"/><rect x="300.5" y="10.5" width="69" height="35" rx="7.5" stroke="#38AEE0"/><path d="m316.017 33 3.598-9.338h.686L323.969 33h-1.218l-1.106-2.884h-3.388L317.193 33zm2.604-3.878h2.66l-1.358-3.57zm7.626-1.918v4.27q0 .49.182.658.195.154.49.154.266 0 .504-.112a2.3 2.3 0 0 0 .434-.266l.42.728q-.323.238-.644.378-.309.14-.882.14-.756 0-1.162-.378-.406-.392-.406-1.19v-4.382h-1.148v-.882h1.148V24.6l1.078-.196v1.918h1.82l-.154.882zm4.593 0v4.27q0 .49.182.658a.77.77 0 0 0 .49.154q.267 0 .504-.112a2.2 2.2 0 0 0 .434-.266l.42.728a3.3 3.3 0 0 1-.644.378q-.308.14-.882.14-.756 0-1.162-.378-.406-.392-.406-1.19v-4.382h-1.148v-.882h1.148V24.6l1.078-.196v1.918h1.82l-.154.882zM337.905 33l-.056-.574a2.5 2.5 0 0 1-.812.546q-.447.182-.994.182-.434 0-.854-.14a2.3 2.3 0 0 1-.728-.378 2.1 2.1 0 0 1-.504-.658 2 2 0 0 1-.196-.91q0-.714.378-1.176.392-.476.98-.742a5 5 0 0 1 1.302-.378 9 9 0 0 1 1.386-.112v-.084q0-.84-.364-1.204-.35-.364-1.022-.364-.462 0-.854.21-.378.195-.644.532l-.756-.532q.406-.546.952-.798.56-.266 1.4-.266 1.12 0 1.736.574.63.574.63 1.918V33zm-.098-3.486q-.462.015-.98.07a4 4 0 0 0-.966.224 1.84 1.84 0 0 0-.728.462q-.28.308-.28.812 0 .322.126.546t.308.378q.196.14.42.21.238.056.462.056.49 0 .896-.196.42-.21.742-.49zm8.271 2.058q-.393.812-1.078 1.204a2.87 2.87 0 0 1-1.428.378q-.588 0-1.162-.21a2.8 2.8 0 0 1-.994-.644 3.3 3.3 0 0 1-.7-1.078q-.267-.658-.266-1.54 0-.938.266-1.61.265-.672.7-1.092.434-.435.98-.63t1.092-.196a2.63 2.63 0 0 1 1.708.588q.307.252.49.532.196.28.28.504l-.798.504q-.294-.672-.742-.966a1.7 1.7 0 0 0-.938-.294q-.378 0-.728.182-.351.168-.63.504-.28.337-.448.826-.168.49-.168 1.12t.168 1.12.448.826q.294.336.672.518.391.168.826.168.49 0 .938-.28.462-.28.756-.91zm2.403-8.092v3.374q.405-.295.924-.49.517-.21 1.162-.21 1.357 0 1.918.686.574.686.574 2.002V33h-1.092v-4.172q0-.924-.378-1.358-.378-.448-1.218-.448-.532 0-1.036.252a5.5 5.5 0 0 0-.854.504V33h-1.078v-9.338z" fill="#003E52"/></svg>